<svg xmlns="http://www.w3.org/2000/svg" width="18.286" height="16" viewBox="0 0 18.286 16">
  <path id="Analytics" d="M-7-9.661a1.653,1.653,0,0,1,.5-1.214,1.653,1.653,0,0,1,1.214-.5H9.571a1.653,1.653,0,0,1,1.214.5,1.653,1.653,0,0,1,.5,1.214V2.911a1.653,1.653,0,0,1-.5,1.214,1.653,1.653,0,0,1-1.214.5H-5.286a1.653,1.653,0,0,1-1.214-.5A1.653,1.653,0,0,1-7,2.911Zm16.857,8V-5.089H.036v3.429Zm0,1.429H.036V3.2H9.429a.427.427,0,0,0,.429-.429ZM-5.571-5.089v3.429h4.179V-5.089ZM.036-6.518H9.857v-3a.413.413,0,0,0-.125-.3.413.413,0,0,0-.3-.125H.036ZM-1.393-9.946h-3.75a.413.413,0,0,0-.3.125.413.413,0,0,0-.125.3v3h4.179ZM-5.571-.232v3a.413.413,0,0,0,.125.3.413.413,0,0,0,.3.125h3.75V-.232Z" transform="translate(7 11.375)" fill="#e3e0db"/>
</svg>
