<svg xmlns="http://www.w3.org/2000/svg" width="23.869" height="13.435" viewBox="0 0 23.869 13.435">
  <path id="art-track" d="M24.526,15.061H19.465a1.343,1.343,0,1,1,0-2.687h5.061a1.343,1.343,0,0,1,0,2.687Zm0-8.061H19.465a1.343,1.343,0,1,0,0,2.687h5.061a1.343,1.343,0,0,0,0-2.687ZM19.465,20.435h5.061a1.343,1.343,0,0,0,0-2.687H19.465a1.343,1.343,0,1,0,0,2.687ZM15.435,9.687v8.061a2.7,2.7,0,0,1-2.687,2.687H4.687A2.7,2.7,0,0,1,2,17.748V9.687A2.7,2.7,0,0,1,4.687,7h8.061A2.7,2.7,0,0,1,15.435,9.687Zm-2.821,6.986-1.693-2.257A.682.682,0,0,0,9.846,14.4l-1.8,2.351L6.9,15.37a.671.671,0,0,0-1.048.013l-.994,1.276a.673.673,0,0,0,.524,1.088h6.69A.671.671,0,0,0,12.613,16.673Z" transform="translate(-2 -7)" fill="#e3e0db"/>
</svg>
