<svg xmlns="http://www.w3.org/2000/svg" width="26.286" height="16" viewBox="0 0 26.286 16">
  <g id="Group_27455" data-name="Group 27455" transform="translate(-1253 -399)">
    <path id="Path_16867" data-name="Path 16867" d="M0-11.286A1.653,1.653,0,0,1,.5-12.5,1.653,1.653,0,0,1,1.714-13H16.571a1.653,1.653,0,0,1,1.214.5,1.653,1.653,0,0,1,.5,1.214V1.286a1.653,1.653,0,0,1-.5,1.214,1.653,1.653,0,0,1-1.214.5H1.714A1.653,1.653,0,0,1,.5,2.5,1.653,1.653,0,0,1,0,1.286Zm8.286,0H1.929a.206.206,0,0,0-.143.071.206.206,0,0,0-.071.143v5.214H8.286ZM1.714-4.143V1.071a.206.206,0,0,0,.071.143.206.206,0,0,0,.143.071H8.286V-4.143ZM10,1.286h6.357a.206.206,0,0,0,.143-.071.206.206,0,0,0,.071-.143V-4.143H10Zm6.571-7.143v-5.214a.206.206,0,0,0-.071-.143.206.206,0,0,0-.143-.071H10v5.429Z" transform="translate(1253 412)" fill="#e3e0db"/>
    <path id="Path_16873" data-name="Path 16873" d="M0-11.286A1.653,1.653,0,0,1,.5-12.5,1.653,1.653,0,0,1,1.714-13H16.571a1.653,1.653,0,0,1,1.214.5,1.653,1.653,0,0,1,.5,1.214V1.286a1.653,1.653,0,0,1-.5,1.214,1.653,1.653,0,0,1-1.214.5H1.714A1.653,1.653,0,0,1,.5,2.5,1.653,1.653,0,0,1,0,1.286Zm8.286,0H1.929a.206.206,0,0,0-.143.071.206.206,0,0,0-.071.143v5.214H8.286ZM1.714-4.143V1.071a.206.206,0,0,0,.071.143.206.206,0,0,0,.143.071H8.286V-4.143ZM10,1.286h6.357a.206.206,0,0,0,.143-.071.206.206,0,0,0,.071-.143V-4.143H10Zm6.571-7.143v-5.214a.206.206,0,0,0-.071-.143.206.206,0,0,0-.143-.071H10v5.429Z" transform="translate(1261 412)" fill="#e3e0db"/>
  </g>
</svg>
