<svg xmlns="http://www.w3.org/2000/svg" width="16" height="17.778" viewBox="0 0 16 17.778">
  <path id="Path_16861" data-name="Path 16861" d="M16.333,3.778h-.889V2.889a.889.889,0,0,0-1.778,0v.889H8.333V2.889a.889.889,0,1,0-1.778,0v.889H5.667A2.667,2.667,0,0,0,3,6.444V17.111a2.667,2.667,0,0,0,2.667,2.667H16.333A2.667,2.667,0,0,0,19,17.111V6.444a2.667,2.667,0,0,0-2.667-2.667ZM7.444,15.333a.889.889,0,1,1,.889-.889A.889.889,0,0,1,7.444,15.333Zm7.111,0H11a.889.889,0,1,1,0-1.778h3.556a.889.889,0,1,1,0,1.778ZM17.222,10H4.778V6.444a.889.889,0,0,1,.889-.889h.889v.889a.889.889,0,1,0,1.778,0V5.556h5.333v.889a.889.889,0,0,0,1.778,0V5.556h.889a.889.889,0,0,1,.889.889Z" transform="translate(-3 -2)" fill="#a79d90"/>
</svg>
