<svg id="chart" xmlns="http://www.w3.org/2000/svg" width="20" height="20" viewBox="0 0 20 20">
  <path id="Path_16864" data-name="Path 16864" d="M14.676,0H5.333C1.929,0,0,1.929,0,5.333v9.333C0,18.071,1.929,20,5.333,20h9.342C18.08,20,20,18.071,20,14.667V5.333C20,1.929,18.08,0,14.676,0" fill="#e3e0db" opacity="0.4"/>
  <path id="Path_16865" data-name="Path 16865" d="M5.369,7.369a.833.833,0,0,0-.827.836v6.871a.831.831,0,0,0,1.662,0V8.2a.835.835,0,0,0-.836-.836m4.667-3.28a.833.833,0,0,0-.827.836V15.076a.831.831,0,0,0,1.662,0V4.925a.835.835,0,0,0-.836-.836M14.64,11a.835.835,0,0,0-.836.836v3.244a.831.831,0,0,0,1.662,0V11.831A.833.833,0,0,0,14.64,11" fill="#e3e0db"/>
</svg>
