<svg xmlns="http://www.w3.org/2000/svg" width="12" height="16" viewBox="0 0 12 16">
  <path id="Path_16872" data-name="Path 16872" d="M11.943,2.472A1.459,1.459,0,0,0,10.877,2H5.5A1.557,1.557,0,0,0,4,3.6V16.4A1.551,1.551,0,0,0,5.492,18H14.5A1.557,1.557,0,0,0,16,16.4V7.464a1.627,1.627,0,0,0-.443-1.128ZM12.25,14.8H7.75a.8.8,0,0,1,0-1.6h4.5a.8.8,0,0,1,0,1.6Zm0-3.2H7.75a.8.8,0,0,1,0-1.6h4.5a.8.8,0,0,1,0,1.6Zm-1.5-4.8V3.2l4.125,4.4H11.5A.778.778,0,0,1,10.75,6.8Z" transform="translate(-4 -2)" fill="#e3e0db"/>
</svg>
