<svg xmlns="http://www.w3.org/2000/svg" width="36" height="36" viewBox="0 0 36 36">
  <g id="Group_27453" data-name="Group 27453" transform="translate(-292 -153)">
    <path id="Icon" d="M16,16H12.464V10.375c0-1.472-.553-2.477-1.769-2.477A1.813,1.813,0,0,0,9.006,9.23a2.7,2.7,0,0,0-.076.888V16h-3.5s.045-9.964,0-10.869h3.5V6.837a3.168,3.168,0,0,1,3.113-1.81C14.259,5.026,16,6.59,16,9.956V16ZM1.884,3.771H1.861A1.8,1.8,0,0,1,0,1.887,1.818,1.818,0,0,1,1.905,0a1.809,1.809,0,0,1,1.88,1.884,1.815,1.815,0,0,1-1.9,1.887ZM.4,5.131H3.522V16H.4Z" transform="translate(302 163)" fill="#a79d90"/>
    <g id="Ellipse_87" data-name="Ellipse 87" transform="translate(292 153)" fill="none" stroke="#a79d90" stroke-width="1">
      <circle cx="18" cy="18" r="18" stroke="none"/>
      <circle cx="18" cy="18" r="17.5" fill="none"/>
    </g>
  </g>
</svg>
