<svg xmlns="http://www.w3.org/2000/svg" width="16.16" height="18.557" viewBox="0 0 16.16 18.557">
  <g id="offer" transform="translate(-4.594 -3.305)">
    <path id="Path_16857" data-name="Path 16857" d="M10,19.229l2.29,3.967a.442.442,0,0,0,.766,0l2.29-3.967L20.2,10.822l.493-.854a.442.442,0,0,0-.383-.663H5.037a.442.442,0,0,0-.383.663l.493.854Z" transform="translate(0 -1.555)" fill="#e3e0db"/>
    <path id="Path_16858" data-name="Path 16858" d="M17.458,9.3H9.149L7.025,12.983l3.606,6.245.69,1.2h3.965l.69-1.2,3.606-6.245L17.458,9.3Z" transform="translate(-0.63 -1.555)" fill="#e3e0db"/>
    <path id="Path_16859" data-name="Path 16859" d="M15.347,7.492l-2.29-3.967a.442.442,0,0,0-.766,0L10,7.492,5.147,15.9l-.493.854a.442.442,0,0,0,.383.663H20.31a.442.442,0,0,0,.383-.663L20.2,15.9,15.347,7.492Z" transform="translate(0)" fill="#e3e0db"/>
    <path id="Path_16860" data-name="Path 16860" d="M20.693,16.753,20.2,15.9,15.347,7.492l-2.29-3.967a.442.442,0,0,0-.766,0l-.671,1.162.764,1.323L16.188,12.6a2.223,2.223,0,0,1-1.925,3.334H5.126l-.473.819a.442.442,0,0,0,.383.663H20.31a.443.443,0,0,0,.383-.665Z" transform="translate(0 0)" fill="#e3e0db"/>
  </g>
</svg>
