<svg xmlns="http://www.w3.org/2000/svg" width="16" height="16" viewBox="0 0 16 16">
  <path id="Path_16291" data-name="Path 16291" d="M16.383,10.784A6.067,6.067,0,0,0,16.441,10a6.068,6.068,0,0,0-.058-.784L18.119,7.9a.4.4,0,0,0,.1-.512L16.572,4.616a.419.419,0,0,0-.5-.176l-2.048.8a6.052,6.052,0,0,0-1.39-.784l-.313-2.12a.4.4,0,0,0-.4-.336H8.628a.4.4,0,0,0-.4.336l-.313,2.12a6.364,6.364,0,0,0-1.39.784l-2.048-.8a.406.406,0,0,0-.5.176L2.328,7.384a.387.387,0,0,0,.1.512l1.735,1.32A6.174,6.174,0,0,0,4.1,10a6.174,6.174,0,0,0,.058.784L2.426,12.1a.4.4,0,0,0-.1.512l1.645,2.768a.419.419,0,0,0,.5.176l2.048-.8a6.052,6.052,0,0,0,1.39.784l.313,2.12a.4.4,0,0,0,.4.336h3.29a.4.4,0,0,0,.4-.336l.313-2.12a6.364,6.364,0,0,0,1.39-.784l2.048.8a.406.406,0,0,0,.5-.176l1.645-2.768a.4.4,0,0,0-.1-.512ZM10.272,12.8A2.8,2.8,0,1,1,13.151,10,2.843,2.843,0,0,1,10.272,12.8Z" transform="translate(-2.271 -2)" fill="#e3e0db"/>
</svg>
