<svg xmlns="http://www.w3.org/2000/svg" width="36" height="36" viewBox="0 0 36 36">
  <g id="Group_27452" data-name="Group 27452" transform="translate(-236 -153)">
    <path id="Icon" d="M20,1.777a9.113,9.113,0,0,1-2.363.6,3.834,3.834,0,0,0,1.8-2.092,8.62,8.62,0,0,1-2.6.916A4.193,4.193,0,0,0,14.747.092a4.421,4.421,0,0,0-2.406.173,4.058,4.058,0,0,0-1.884,1.393A3.655,3.655,0,0,0,9.844,4.65,12.372,12.372,0,0,1,5.16,3.5,11.48,11.48,0,0,1,1.392.691a3.536,3.536,0,0,0-.457,2.76,3.8,3.8,0,0,0,1.716,2.3A4.312,4.312,0,0,1,.8,5.283v.041a3.626,3.626,0,0,0,.927,2.4A4.189,4.189,0,0,0,4.085,9.043a4.415,4.415,0,0,1-1.075.125A3.919,3.919,0,0,1,2.234,9.1,3.847,3.847,0,0,0,3.7,10.983a4.366,4.366,0,0,0,2.369.756A8.688,8.688,0,0,1,.981,13.354,8.313,8.313,0,0,1,0,13.3,12.255,12.255,0,0,0,6.29,15c7.545,0,11.67-5.769,11.67-10.769,0-.167-.006-.329-.015-.489A7.863,7.863,0,0,0,20,1.777Z" transform="translate(244 164)" fill="#a79d90"/>
    <g id="Ellipse_86" data-name="Ellipse 86" transform="translate(236 153)" fill="none" stroke="#a79d90" stroke-width="1">
      <circle cx="18" cy="18" r="18" stroke="none"/>
      <circle cx="18" cy="18" r="17.5" fill="none"/>
    </g>
  </g>
</svg>
