<svg xmlns="http://www.w3.org/2000/svg" width="20.281" height="18.253" viewBox="0 0 20.281 18.253">
  <path id="wallet_2_" data-name="wallet (2)" d="M14.719,0c3.5,0,5.561,2.012,5.561,5.457H15.99v.035a3.561,3.561,0,0,0-3.605,3.515,3.561,3.561,0,0,0,3.605,3.515h4.291v.316c0,3.4-2.064,5.413-5.561,5.413H5.561C2.064,18.253,0,16.24,0,12.839H0V5.413C0,2.012,2.064,0,5.561,0h9.158Zm4.8,6.969a.748.748,0,0,1,.757.738h0v2.566a.757.757,0,0,1-.757.738H16.072a2.136,2.136,0,0,1-2.118-1.617,2.01,2.01,0,0,1,.439-1.675,2.121,2.121,0,0,1,1.6-.75h3.533ZM16.477,8.155h-.334a.777.777,0,0,0-.548.216.738.738,0,0,0-.228.531.774.774,0,0,0,.775.765h.334a.756.756,0,1,0,0-1.512ZM10.528,3.946H4.8a.766.766,0,0,0-.775.747.774.774,0,0,0,.775.765h5.724a.756.756,0,1,0,0-1.512Z" fill="#e3e0db"/>
</svg>
